<?xml version="1.0" encoding="utf-8"?>
<!-- Generator: Adobe Illustrator 22.0.1, SVG Export Plug-In . SVG Version: 6.00 Build 0)  -->
<svg version="1.1" id="Layer_1" xmlns="http://www.w3.org/2000/svg" xmlns:xlink="http://www.w3.org/1999/xlink" x="0px" y="0px"
	 width="830px" height="830px" viewBox="0 0 830 830" style="enable-background:new 0 0 830 830;" xml:space="preserve">
<path d="M306.9,461.9c-6.8-36.5,5.5-74.2,32.4-99.7C308.2,243,104.6,240,31,267.3c-2.9,1.1-4.2,4.6-2.6,7.3
	c12.5,20.9,28.2,39.6,36.7,49.1c2.6,2.9,1.1,7.4-2.7,8.2c-12.4,2.7-36.2,8.6-58.5,18.1c-2.9,1.2-3.9,4.8-2.2,7.4
	C45.2,422.9,211.7,540.1,306.9,461.9z"/>
<path d="M400.6,551c-36.8-4.9-68.8-28.1-84.8-61.6C192.8,482,127,674.8,130.3,753.2c0.1,3.1,3,5.4,6.1,4.8
	c23.7-5.4,46.4-14.6,58-19.7c3.5-1.6,7.4,1.2,7,5.1c-1.3,12.6-3,37-0.8,61.3c0.3,3.1,3.4,5.2,6.4,4.3
	C282.6,787.8,445.6,665.6,400.6,551z"/>
<path d="M514.2,489.4c-16,33.5-48,56.8-84.8,61.6c-45,114.7,118,236.8,193.6,258c3,0.8,6.1-1.2,6.4-4.3c2.2-24.2,0.4-48.6-0.8-61.3
	c-0.4-3.8,3.5-6.7,7-5.1c11.6,5.1,34.3,14.3,58,19.7c3.1,0.7,6-1.6,6.1-4.8C703,674.8,637.2,482,514.2,489.4z"/>
<path d="M490.7,362.2c26.9,25.5,39.1,63.2,32.4,99.7c95.2,78.2,261.7-39,305.2-104.4c1.7-2.6,0.7-6.2-2.2-7.4
	c-22.4-9.6-46.1-15.5-58.5-18.1c-3.8-0.8-5.3-5.4-2.7-8.2c8.5-9.5,24.2-28.2,36.7-49.1c1.6-2.7,0.3-6.2-2.6-7.3
	C725.4,240,521.8,243,490.7,362.2z"/>
<path d="M362.6,345.3c32.6-17.7,72.2-17.7,104.8,0c103.8-66.3,43.7-261-5-322.5c-2-2.5-5.7-2.6-7.7-0.3c-16,18.3-29,39.1-35.3,50.1
	c-1.9,3.3-6.7,3.3-8.7,0c-6.4-11-19.3-31.8-35.3-50.1c-2.1-2.4-5.8-2.2-7.7,0.3C318.8,84.3,258.8,279,362.6,345.3z"/>
</svg>
