<?xml version="1.0" encoding="utf-8"?>
<!-- Generator: Adobe Illustrator 22.0.1, SVG Export Plug-In . SVG Version: 6.00 Build 0)  -->
<svg version="1.1" id="Layer_1" xmlns="http://www.w3.org/2000/svg" xmlns:xlink="http://www.w3.org/1999/xlink" x="0px" y="0px"
	 width="720px" height="720px" viewBox="0 0 720 720" enable-background="new 0 0 720 720" xml:space="preserve">
<path d="M270.86,399.6c-5.63-30.41,4.58-61.81,27-83.1C271.33,214.52,93.19,214.53,36.28,239.25
	c14.99,26.82,38.02,50.55,38.02,50.55s-32.57,5.66-60.47,18.55C45.34,361.79,189.45,466.51,270.86,399.6z"/>
<path d="M317.31,302.37c27.18-14.75,60.2-14.75,87.38,0c88.79-56.75,33.73-226.17-7.36-272.66C376.45,52.26,361,81.49,361,81.49
	s-15.45-29.23-36.33-51.77C283.58,76.21,228.52,245.62,317.31,302.37z"/>
<path d="M443.71,422.47c-13.32,27.91-40.03,47.32-70.69,51.36c-38.48,98.1,105.65,202.8,166.22,216.26
	c3.64-30.51-1.04-63.24-1.04-63.24s29.68,14.57,59.82,20.53C603.94,585.61,548.9,416.19,443.71,422.47z"/>
<path d="M348.98,473.83c-30.66-4.04-57.37-23.45-70.69-51.36c-105.19-6.28-160.23,163.15-154.31,224.91
	c30.14-5.97,59.82-20.53,59.82-20.53s-4.68,32.73-1.04,63.24C243.33,676.62,387.46,571.93,348.98,473.83z"/>
<path d="M424.14,316.5c22.43,21.29,32.63,52.7,27,83.1c81.41,66.91,225.52-37.81,257.04-91.26c-27.89-12.89-60.47-18.55-60.47-18.55
	s23.02-23.72,38.02-50.55C628.81,214.53,450.67,214.52,424.14,316.5z"/>
</svg>
